<?xml version="1.0" encoding="UTF-8"?>
<svg id="Capa_1" data-name="Capa 1" xmlns="http://www.w3.org/2000/svg" viewBox="0 0 2216.84 1192.16">
  <g>
    <g>
      <path d="M874.82,178.45h35.36c26.13,0,45.76,19.24,45.76,44.85s-19.63,44.85-45.76,44.85h-35.36v-89.7ZM894.97,197.43v51.74h14.69c14.69,0,25.61-11.18,25.61-25.87s-10.92-25.87-25.61-25.87h-14.69Z"/>
      <path d="M971.54,217.06c-3.64-2.47-5.85-6.89-5.85-11.7,0-7.02,4.94-11.83,12.35-11.83,7.02,0,11.83,4.42,12.61,10.27l40.95,4.68v4.55c-7.15,9.88-10.92,18.46-10.92,25.74s3.51,11.05,10.14,11.05h2.86v18.33h-4.55c-18.46,0-27.95-10.14-27.95-27.04,0-5.72,1.17-11.44,3.9-17.29l-16.25-2.21-8.71,46.54h-18.72l10.14-51.09Z"/>
      <path d="M1038.75,235c0-19.76,13.78-34.71,31.98-34.71,8.06,0,14.95,2.99,20.02,8.19v-6.63h18.98v42.64c0,3.38,1.95,5.33,5.33,5.33h1.3v18.33h-5.33c-9.1,0-15.08-2.99-18.07-8.97-5.33,6.5-13,10.53-22.23,10.53-18.2,0-31.98-14.95-31.98-34.71ZM1090.75,235c0-9.36-6.89-16.38-16.25-16.38s-16.12,7.02-16.12,16.38,6.89,16.38,16.12,16.38,16.25-7.02,16.25-16.38Z"/>
      <path d="M1125.72,256.45c0-7.28,5.59-12.87,13-12.87s13.13,5.59,13.13,12.87-5.59,13-13.13,13-13-5.59-13-13Z"/>
    </g>
    <g>
      <path d="M874.82,302.06h108.8c80.4,0,140.8,59.2,140.8,138s-60.4,138-140.8,138h-108.8v-276ZM936.82,360.46v159.2h45.2c45.2,0,78.8-34.4,78.8-79.6s-33.6-79.6-78.8-79.6h-45.2Z"/>
      <path d="M1154.82,312.86c0-20.4,15.6-35.6,36-35.6s36.4,15.2,36.4,35.6-15.6,36-36.4,36-36-15.2-36-36ZM1161.62,374.06h58.4v204h-58.4v-204Z"/>
      <path d="M1267.22,374.06h58.4v20c16-16.4,36.8-24.8,62-24.8,46.8,0,78,30.8,78,77.6v58.4c0,10.4,6,16.4,16.4,16.4h4v56.4h-16.4c-41.2,0-62.4-20.4-62.4-60v-51.6c0-24.8-15.6-40.8-39.2-40.8-25.2,0-42.4,16.4-42.4,41.6v110.8h-58.4v-204Z"/>
      <path d="M1502.81,476.06c0-60.8,42.4-106.8,98.4-106.8,24.8,0,46,9.2,61.6,25.2v-20.4h58.4v131.2c0,10.4,6,16.4,16.4,16.4h4v56.4h-16.4c-28,0-46.4-9.2-55.6-27.6-16.4,20-40,32.4-68.4,32.4-56,0-98.4-46-98.4-106.8ZM1662.81,476.06c0-28.8-21.2-50.4-50-50.4s-49.6,21.6-49.6,50.4,21.2,50.4,49.6,50.4,50-21.6,50-50.4Z"/>
    </g>
    <g>
      <path d="M874.82,612.61h124.4c54.8,0,96,39.6,96,92.4,0,40.8-25.2,72.8-62.8,84.4l13.2,19.2c10.4,14.8,24.4,21.6,42.4,21.6h12v58.4h-18.8c-44,0-75.2-16.8-94-51.2l-25.6-43.2h-24.8v94.4h-62v-276ZM936.82,671.01v69.2h61.2c19.2,0,33.6-14.8,33.6-34.4s-14.4-34.8-33.6-34.8h-61.2Z"/>
      <path d="M1116.02,786.6c0-60.8,47.2-106.8,110-106.8s110,45.6,110,107.6c0,5.2-.4,13.2-1.6,18h-156c6.4,23.2,24.8,38,49.2,38,19.2,0,35.2-8.4,42.8-19.2h62.4c-15.2,41.2-56,69.2-106.4,69.2-63.2,0-110.4-46-110.4-106.8ZM1178.82,766.61h94.8c-6.4-22.4-24.4-36.8-47.6-36.8s-40.8,14.4-47.2,36.8Z"/>
      <path d="M1366.42,806.2v-121.6h58.4v104c0,22.8,14.4,37.6,36.4,37.6,23.6,0,39.6-15.2,39.6-38.4v-103.2h58.4v191.6c0,56.4-39.6,93.2-96.4,93.2-49.2,0-84.8-27.6-95.6-72h60c6,13.2,20,21.2,36,21.2,22,0,37.6-15.2,37.6-39.6v-20.8c-15.2,16.4-35.2,24.8-59.2,24.8-45.2,0-75.2-30.4-75.2-76.8Z"/>
      <path d="M1592.82,786.6c0-60.8,47.2-106.8,110-106.8s110,45.6,110,107.6c0,5.2-.4,13.2-1.6,18h-156c6.4,23.2,24.8,38,49.2,38,19.2,0,35.2-8.4,42.8-19.2h62.4c-15.2,41.2-56,69.2-106.4,69.2-63.2,0-110.4-46-110.4-106.8ZM1655.61,766.61h94.8c-6.4-22.4-24.4-36.8-47.6-36.8s-40.8,14.4-47.2,36.8Z"/>
      <path d="M1877.61,863.8l-10.4,24.8h-60l85.2-204h66.8c6,52.4,78.4,50.4,78.4,124.8,0,49.6-31.6,84-84.8,84-30.4,0-57.2-11.6-75.2-29.6ZM1924.81,746.21l-28,69.2c9.6,13.2,26,21.6,44.8,21.6,21.2,0,36-11.2,36-28.8,0-24.8-34.8-33.6-52.8-62Z"/>
    </g>
    <g>
      <path d="M874.82,922.45h57.59v18.98h-37.44v17.03h32.37v18.98h-32.37v34.71h-20.15v-89.7Z"/>
      <path d="M941.51,925.96c0-6.63,5.07-11.57,11.7-11.57s11.83,4.94,11.83,11.57-5.07,11.7-11.83,11.7-11.7-4.94-11.7-11.7ZM943.72,945.85h18.98v66.3h-18.98v-66.3Z"/>
      <path d="M990.26,1004.1l-3.38,8.06h-19.5l27.69-66.3h21.71c1.95,17.03,25.48,16.38,25.48,40.56,0,16.12-10.27,27.3-27.56,27.3-9.88,0-18.59-3.77-24.44-9.62ZM1005.6,965.88l-9.1,22.49c3.12,4.29,8.45,7.02,14.56,7.02,6.89,0,11.7-3.64,11.7-9.36,0-8.06-11.31-10.92-17.16-20.15Z"/>
      <path d="M1050.19,925.96c0-6.63,5.07-11.57,11.7-11.57s11.83,4.94,11.83,11.57-5.07,11.7-11.83,11.7-11.7-4.94-11.7-11.7ZM1052.4,945.85h18.98v66.3h-18.98v-66.3Z"/>
      <path d="M1083.08,979.01c0-19.76,13.78-34.71,31.98-34.71,8.06,0,14.95,2.99,20.02,8.19v-6.63h18.98v42.64c0,3.38,1.95,5.33,5.33,5.33h1.3v18.33h-5.33c-9.1,0-15.08-2.99-18.07-8.97-5.33,6.5-13,10.53-22.23,10.53-18.2,0-31.98-14.95-31.98-34.71ZM1135.08,979.01c0-9.36-6.89-16.38-16.25-16.38s-16.12,7.02-16.12,16.38,6.89,16.38,16.12,16.38,16.25-7.02,16.25-16.38Z"/>
      <path d="M1175.51,990.58v-27.43h-9.88v-17.29h5.46c3.64,0,5.46-1.82,5.46-5.46v-11.96h17.94v17.42h14.43v17.29h-14.43v24.31c0,4.68,2.86,7.41,7.8,7.41h6.63v17.29h-9.49c-15.73,0-23.92-7.41-23.92-21.58Z"/>
      <path d="M1226.34,961.07c-3.64-2.47-5.85-6.89-5.85-11.7,0-7.02,4.94-11.83,12.35-11.83,7.02,0,11.83,4.42,12.61,10.27l40.95,4.68v4.55c-7.15,9.88-10.92,18.46-10.92,25.74s3.51,11.05,10.14,11.05h2.86v18.33h-4.55c-18.46,0-27.95-10.14-27.95-27.04,0-5.72,1.17-11.44,3.9-17.29l-16.25-2.21-8.71,46.54h-18.72l10.14-51.09Z"/>
      <path d="M1293.55,979.01c0-19.76,13.78-34.71,31.98-34.71,8.06,0,14.95,2.99,20.02,8.19v-6.63h18.98v42.64c0,3.38,1.95,5.33,5.33,5.33h1.3v18.33h-5.33c-9.1,0-15.08-2.99-18.07-8.97-5.33,6.5-13,10.53-22.23,10.53-18.2,0-31.98-14.95-31.98-34.71ZM1345.55,979.01c0-9.36-6.89-16.38-16.25-16.38s-16.12,7.02-16.12,16.38,6.89,16.38,16.12,16.38,16.25-7.02,16.25-16.38Z"/>
    </g>
  </g>
  <g>
    <path d="M451.98,616.97c49.41,0,89.61-40.2,89.61-89.61s-40.2-89.61-89.61-89.61-89.61,40.2-89.61,89.61,40.2,89.61,89.61,89.61ZM451.98,503.32c13.26,0,24.04,10.79,24.04,24.04s-10.79,24.04-24.04,24.04-24.04-10.79-24.04-24.04,10.79-24.04,24.04-24.04Z"/>
    <path d="M500.85,664.99l-14.33-23.09-74.17,18.65-111.89,296.5,69.63,26.28,92.34-244.7c41.16,51.9,132.62,147.62,269.74,183.76l18.97-71.96c-158.82-41.86-249.43-184.07-250.29-185.44Z"/>
    <path d="M826.77,366.92c-12.03-43.27-38.63-80.7-76.93-108.27-33.29-23.96-74.43-39.93-118.96-46.19-69.38-9.75-146.1.17-228.05,29.49l25.07,70.07c70.49-25.22,135.3-33.92,192.62-25.86,53.6,7.53,117.1,37.94,134.54,100.7,13.43,48.3-5.31,107.47-47.74,150.74-44.32,45.19-107.01,64.92-162.48,78.25-22.08,5.31-45.52,9.85-68.18,14.24-113.6,22.01-242.36,46.96-297.43,189.16l69.4,26.88c40.22-103.84,133.82-121.98,242.19-142.98,23.47-4.55,47.74-9.25,71.42-14.95,61.9-14.88,140.37-39.53,198.21-98.5,61.64-62.85,87.05-148.21,66.31-222.78Z"/>
  </g>
</svg>