<?xml version="1.0" encoding="UTF-8"?>
<svg id="Capa_1" data-name="Capa 1" xmlns="http://www.w3.org/2000/svg" viewBox="0 0 4188.66 1132.94">
  <g>
    <path d="M880.29,290.47h108.8c80.4,0,140.8,59.2,140.8,138s-60.4,138-140.8,138h-108.8v-276ZM942.29,348.87v159.2h45.2c45.2,0,78.8-34.4,78.8-79.6s-33.6-79.6-78.8-79.6h-45.2Z"/>
    <path d="M1177.89,409.27c-11.2-7.6-18-21.2-18-36,0-21.6,15.2-36.4,38-36.4,21.6,0,36.4,13.6,38.8,31.6l126,14.4v14c-22,30.4-33.6,56.8-33.6,79.2s10.8,34,31.2,34h8.8v56.4h-14c-56.8,0-86-31.2-86-83.2,0-17.6,3.6-35.2,12-53.2l-50-6.8-26.8,143.2h-57.6l31.2-157.2Z"/>
    <path d="M1384.68,464.47c0-60.8,42.4-106.8,98.4-106.8,24.8,0,46,9.2,61.6,25.2v-20.4h58.4v131.2c0,10.4,6,16.4,16.4,16.4h4v56.4h-16.4c-28,0-46.4-9.2-55.6-27.6-16.4,20-40,32.4-68.4,32.4-56,0-98.4-46-98.4-106.8ZM1544.68,464.47c0-28.8-21.2-50.4-50-50.4s-49.6,21.6-49.6,50.4,21.2,50.4,49.6,50.4,50-21.6,50-50.4Z"/>
    <path d="M1652.27,530.47c0-22.4,17.2-39.6,40-39.6s40.4,17.2,40.4,39.6-17.2,40-40.4,40-40-17.2-40-40Z"/>
    <path d="M1859.07,290.47h108.8c80.4,0,140.8,59.2,140.8,138s-60.4,138-140.8,138h-108.8v-276ZM1921.06,348.87v159.2h45.2c45.2,0,78.8-34.4,78.8-79.6s-33.6-79.6-78.8-79.6h-45.2Z"/>
    <path d="M2139.06,301.27c0-20.4,15.6-35.6,36-35.6s36.4,15.2,36.4,35.6-15.6,36-36.4,36-36-15.2-36-36ZM2145.86,362.47h58.4v204h-58.4v-204Z"/>
    <path d="M2251.46,362.47h58.4v20c16-16.4,36.8-24.8,62-24.8,46.8,0,78,30.8,78,77.6v58.4c0,10.4,6,16.4,16.4,16.4h4v56.4h-16.4c-41.2,0-62.4-20.4-62.4-60v-51.6c0-24.8-15.6-40.8-39.2-40.8-25.2,0-42.4,16.4-42.4,41.6v110.8h-58.4v-204Z"/>
    <path d="M2487.06,464.47c0-60.8,42.4-106.8,98.4-106.8,24.8,0,46,9.2,61.6,25.2v-20.4h58.4v131.2c0,10.4,6,16.4,16.4,16.4h4v56.4h-16.4c-28,0-46.4-9.2-55.6-27.6-16.4,20-40,32.4-68.4,32.4-56,0-98.4-46-98.4-106.8ZM2647.05,464.47c0-28.8-21.2-50.4-50-50.4s-49.6,21.6-49.6,50.4,21.2,50.4,49.6,50.4,50-21.6,50-50.4Z"/>
    <path d="M2846.64,290.47h124.4c54.8,0,96,39.6,96,92.4,0,40.8-25.2,72.8-62.8,84.4l13.2,19.2c10.4,14.8,24.4,21.6,42.4,21.6h12v58.4h-18.8c-44,0-75.2-16.8-94-51.2l-25.6-43.2h-24.8v94.4h-62v-276ZM2908.64,348.87v69.2h61.2c19.2,0,33.6-14.8,33.6-34.4s-14.4-34.8-33.6-34.8h-61.2Z"/>
    <path d="M3087.84,464.47c0-60.8,47.2-106.8,110-106.8s110,45.6,110,107.6c0,5.2-.4,13.2-1.6,18h-156c6.4,23.2,24.8,38,49.2,38,19.2,0,35.2-8.4,42.8-19.2h62.4c-15.2,41.2-56,69.2-106.4,69.2-63.2,0-110.4-46-110.4-106.8ZM3150.64,444.47h94.8c-6.4-22.4-24.4-36.8-47.6-36.8s-40.8,14.4-47.2,36.8Z"/>
    <path d="M3338.24,484.07v-121.6h58.4v104c0,22.8,14.4,37.6,36.4,37.6,23.6,0,39.6-15.2,39.6-38.4v-103.2h58.4v191.6c0,56.4-39.6,93.2-96.4,93.2-49.2,0-84.8-27.6-95.6-72h60c6,13.2,20,21.2,36,21.2,22,0,37.6-15.2,37.6-39.6v-20.8c-15.2,16.4-35.2,24.8-59.2,24.8-45.2,0-75.2-30.4-75.2-76.8Z"/>
    <path d="M3564.64,464.47c0-60.8,47.2-106.8,110-106.8s110,45.6,110,107.6c0,5.2-.4,13.2-1.6,18h-156c6.4,23.2,24.8,38,49.2,38,19.2,0,35.2-8.4,42.8-19.2h62.4c-15.2,41.2-56,69.2-106.4,69.2-63.2,0-110.4-46-110.4-106.8ZM3627.44,444.47h94.8c-6.4-22.4-24.4-36.8-47.6-36.8s-40.8,14.4-47.2,36.8Z"/>
    <path d="M3849.44,541.67l-10.4,24.8h-60l85.2-204h66.8c6,52.4,78.4,50.4,78.4,124.8,0,49.6-31.6,84-84.8,84-30.4,0-57.2-11.6-75.2-29.6ZM3896.64,424.07l-28,69.2c9.6,13.2,26,21.6,44.8,21.6,21.2,0,36-11.2,36-28.8,0-24.8-34.8-33.6-52.8-62Z"/>
  </g>
  <g>
    <path d="M873.69,645.77h132.9v43.8h-86.4v39.3h74.7v43.8h-74.7v80.1h-46.5v-207Z"/>
    <path d="M1027.59,653.87c0-15.3,11.7-26.7,27-26.7s27.3,11.4,27.3,26.7-11.7,27-27.3,27-27-11.4-27-27ZM1032.69,699.77h43.8v153h-43.8v-153Z"/>
    <path d="M1140.09,834.17l-7.8,18.6h-45l63.9-153h50.1c4.5,39.3,58.8,37.8,58.8,93.6,0,37.2-23.7,63-63.6,63-22.8,0-42.9-8.7-56.4-22.2ZM1175.49,745.97l-21,51.9c7.2,9.9,19.5,16.2,33.6,16.2,15.9,0,27-8.4,27-21.6,0-18.6-26.1-25.2-39.6-46.5Z"/>
    <path d="M1278.38,653.87c0-15.3,11.7-26.7,27-26.7s27.3,11.4,27.3,26.7-11.7,27-27.3,27-27-11.4-27-27ZM1283.48,699.77h43.8v153h-43.8v-153Z"/>
    <path d="M1354.28,776.27c0-45.6,31.8-80.1,73.8-80.1,18.6,0,34.5,6.9,46.2,18.9v-15.3h43.8v98.4c0,7.8,4.5,12.3,12.3,12.3h3v42.3h-12.3c-21,0-34.8-6.9-41.7-20.7-12.3,15-30,24.3-51.3,24.3-42,0-73.8-34.5-73.8-80.1ZM1474.28,776.27c0-21.6-15.9-37.8-37.5-37.8s-37.2,16.2-37.2,37.8,15.9,37.8,37.2,37.8,37.5-16.2,37.5-37.8Z"/>
    <path d="M1567.58,802.97v-63.3h-22.8v-39.9h12.6c8.4,0,12.6-4.2,12.6-12.6v-27.6h41.4v40.2h33.3v39.9h-33.3v56.1c0,10.8,6.6,17.1,18,17.1h15.3v39.9h-21.9c-36.3,0-55.2-17.1-55.2-49.8Z"/>
    <path d="M1684.88,734.87c-8.4-5.7-13.5-15.9-13.5-27,0-16.2,11.4-27.3,28.5-27.3,16.2,0,27.3,10.2,29.1,23.7l94.5,10.8v10.5c-16.5,22.8-25.2,42.6-25.2,59.4s8.1,25.5,23.4,25.5h6.6v42.3h-10.5c-42.6,0-64.5-23.4-64.5-62.4,0-13.2,2.7-26.4,9-39.9l-37.5-5.1-20.1,107.4h-43.2l23.4-117.9Z"/>
    <path d="M1839.98,776.27c0-45.6,31.8-80.1,73.8-80.1,18.6,0,34.5,6.9,46.2,18.9v-15.3h43.8v98.4c0,7.8,4.5,12.3,12.3,12.3h3v42.3h-12.3c-21,0-34.8-6.9-41.7-20.7-12.3,15-30,24.3-51.3,24.3-42,0-73.8-34.5-73.8-80.1ZM1959.98,776.27c0-21.6-15.9-37.8-37.5-37.8s-37.2,16.2-37.2,37.8,15.9,37.8,37.2,37.8,37.5-16.2,37.5-37.8Z"/>
  </g>
  <g>
    <path d="M451.98,587.36c49.41,0,89.61-40.2,89.61-89.61s-40.2-89.61-89.61-89.61-89.61,40.2-89.61,89.61,40.2,89.61,89.61,89.61ZM451.98,473.7c13.26,0,24.04,10.79,24.04,24.04s-10.79,24.04-24.04,24.04-24.04-10.79-24.04-24.04,10.79-24.04,24.04-24.04Z"/>
    <path d="M500.85,635.37l-14.33-23.09-74.17,18.65-111.89,296.5,69.63,26.28,92.34-244.7c41.16,51.9,132.62,147.62,269.74,183.76l18.97-71.96c-158.82-41.86-249.43-184.07-250.29-185.44Z"/>
    <path d="M826.77,337.31c-12.03-43.27-38.63-80.7-76.93-108.27-33.29-23.96-74.43-39.93-118.96-46.19-69.38-9.75-146.1.17-228.05,29.49l25.07,70.07c70.49-25.22,135.3-33.92,192.62-25.86,53.6,7.53,117.1,37.94,134.54,100.7,13.43,48.3-5.31,107.47-47.74,150.74-44.32,45.19-107.01,64.92-162.48,78.25-22.08,5.31-45.52,9.85-68.18,14.24-113.6,22.01-242.36,46.96-297.43,189.16l69.4,26.88c40.22-103.84,133.82-121.98,242.19-142.98,23.47-4.55,47.74-9.25,71.42-14.95,61.9-14.88,140.37-39.53,198.21-98.5,61.64-62.85,87.05-148.21,66.31-222.78Z"/>
  </g>
</svg>