<?xml version="1.0" encoding="UTF-8"?>
<svg id="Capa_1" data-name="Capa 1" xmlns="http://www.w3.org/2000/svg" viewBox="0 0 3942.14 3191.82">
  <g>
    <path d="M406.5,2219.42h108.8c80.4,0,140.8,59.2,140.8,138s-60.4,138-140.8,138h-108.8v-276ZM468.5,2277.82v159.2h45.2c45.2,0,78.8-34.4,78.8-79.6s-33.6-79.6-78.8-79.6h-45.2Z"/>
    <path d="M704.1,2338.22c-11.2-7.6-18-21.2-18-36,0-21.6,15.2-36.4,38-36.4,21.6,0,36.4,13.6,38.8,31.6l126,14.4v14c-22,30.4-33.6,56.8-33.6,79.2s10.8,34,31.2,34h8.8v56.4h-14c-56.8,0-86-31.2-86-83.2,0-17.6,3.6-35.2,12-53.2l-50-6.8-26.8,143.2h-57.6l31.2-157.2Z"/>
    <path d="M910.89,2393.42c0-60.8,42.4-106.8,98.4-106.8,24.8,0,46,9.2,61.6,25.2v-20.4h58.4v131.2c0,10.4,6,16.4,16.4,16.4h4v56.4h-16.4c-28,0-46.4-9.2-55.6-27.6-16.4,20-40,32.4-68.4,32.4-56,0-98.4-46-98.4-106.8ZM1070.89,2393.42c0-28.8-21.2-50.4-50-50.4s-49.6,21.6-49.6,50.4,21.2,50.4,49.6,50.4,50-21.6,50-50.4Z"/>
    <path d="M1178.49,2459.42c0-22.4,17.2-39.6,40-39.6s40.4,17.2,40.4,39.6-17.2,40-40.4,40-40-17.2-40-40Z"/>
    <path d="M1385.28,2219.42h108.8c80.4,0,140.8,59.2,140.8,138s-60.4,138-140.8,138h-108.8v-276ZM1447.28,2277.82v159.2h45.2c45.2,0,78.8-34.4,78.8-79.6s-33.6-79.6-78.8-79.6h-45.2Z"/>
    <path d="M1665.27,2230.22c0-20.4,15.6-35.6,36-35.6s36.4,15.2,36.4,35.6-15.6,36-36.4,36-36-15.2-36-36ZM1672.07,2291.42h58.4v204h-58.4v-204Z"/>
    <path d="M1777.67,2291.42h58.4v20c16-16.4,36.8-24.8,62-24.8,46.8,0,78,30.8,78,77.6v58.4c0,10.4,6,16.4,16.4,16.4h4v56.4h-16.4c-41.2,0-62.4-20.4-62.4-60v-51.6c0-24.8-15.6-40.8-39.2-40.8-25.2,0-42.4,16.4-42.4,41.6v110.8h-58.4v-204Z"/>
    <path d="M2013.27,2393.42c0-60.8,42.4-106.8,98.4-106.8,24.8,0,46,9.2,61.6,25.2v-20.4h58.4v131.2c0,10.4,6,16.4,16.4,16.4h4v56.4h-16.4c-28,0-46.4-9.2-55.6-27.6-16.4,20-40,32.4-68.4,32.4-56,0-98.4-46-98.4-106.8ZM2173.26,2393.42c0-28.8-21.2-50.4-50-50.4s-49.6,21.6-49.6,50.4,21.2,50.4,49.6,50.4,50-21.6,50-50.4Z"/>
    <path d="M2372.86,2219.42h124.4c54.8,0,96,39.6,96,92.4,0,40.8-25.2,72.8-62.8,84.4l13.2,19.2c10.4,14.8,24.4,21.6,42.4,21.6h12v58.4h-18.8c-44,0-75.2-16.8-94-51.2l-25.6-43.2h-24.8v94.4h-62v-276ZM2434.86,2277.82v69.2h61.2c19.2,0,33.6-14.8,33.6-34.4s-14.4-34.8-33.6-34.8h-61.2Z"/>
    <path d="M2614.05,2393.42c0-60.8,47.2-106.8,110-106.8s110,45.6,110,107.6c0,5.2-.4,13.2-1.6,18h-156c6.4,23.2,24.8,38,49.2,38,19.2,0,35.2-8.4,42.8-19.2h62.4c-15.2,41.2-56,69.2-106.4,69.2-63.2,0-110.4-46-110.4-106.8ZM2676.85,2373.42h94.8c-6.4-22.4-24.4-36.8-47.6-36.8s-40.8,14.4-47.2,36.8Z"/>
    <path d="M2864.45,2413.02v-121.6h58.4v104c0,22.8,14.4,37.6,36.4,37.6,23.6,0,39.6-15.2,39.6-38.4v-103.2h58.4v191.6c0,56.4-39.6,93.2-96.4,93.2-49.2,0-84.8-27.6-95.6-72h60c6,13.2,20,21.2,36,21.2,22,0,37.6-15.2,37.6-39.6v-20.8c-15.2,16.4-35.2,24.8-59.2,24.8-45.2,0-75.2-30.4-75.2-76.8Z"/>
    <path d="M3090.85,2393.42c0-60.8,47.2-106.8,110-106.8s110,45.6,110,107.6c0,5.2-.4,13.2-1.6,18h-156c6.4,23.2,24.8,38,49.2,38,19.2,0,35.2-8.4,42.8-19.2h62.4c-15.2,41.2-56,69.2-106.4,69.2-63.2,0-110.4-46-110.4-106.8ZM3153.65,2373.42h94.8c-6.4-22.4-24.4-36.8-47.6-36.8s-40.8,14.4-47.2,36.8Z"/>
    <path d="M3375.65,2470.62l-10.4,24.8h-60l85.2-204h66.8c6,52.4,78.4,50.4,78.4,124.8,0,49.6-31.6,84-84.8,84-30.4,0-57.2-11.6-75.2-29.6ZM3422.85,2353.02l-28,69.2c9.6,13.2,26,21.6,44.8,21.6,21.2,0,36-11.2,36-28.8,0-24.8-34.8-33.6-52.8-62Z"/>
  </g>
  <g>
    <path d="M1398.38,2574.72h132.9v43.8h-86.4v39.3h74.7v43.8h-74.7v80.1h-46.5v-207Z"/>
    <path d="M1552.28,2582.82c0-15.3,11.7-26.7,27-26.7s27.3,11.4,27.3,26.7-11.7,27-27.3,27-27-11.4-27-27ZM1557.38,2628.72h43.8v153h-43.8v-153Z"/>
    <path d="M1664.77,2763.12l-7.8,18.6h-45l63.9-153h50.1c4.5,39.3,58.8,37.8,58.8,93.6,0,37.2-23.7,63-63.6,63-22.8,0-42.9-8.7-56.4-22.2ZM1700.17,2674.92l-21,51.9c7.2,9.9,19.5,16.2,33.6,16.2,15.9,0,27-8.4,27-21.6,0-18.6-26.1-25.2-39.6-46.5Z"/>
    <path d="M1803.07,2582.82c0-15.3,11.7-26.7,27-26.7s27.3,11.4,27.3,26.7-11.7,27-27.3,27-27-11.4-27-27ZM1808.17,2628.72h43.8v153h-43.8v-153Z"/>
    <path d="M1878.97,2705.22c0-45.6,31.8-80.1,73.8-80.1,18.6,0,34.5,6.9,46.2,18.9v-15.3h43.8v98.4c0,7.8,4.5,12.3,12.3,12.3h3v42.3h-12.3c-21,0-34.8-6.9-41.7-20.7-12.3,15-30,24.3-51.3,24.3-42,0-73.8-34.5-73.8-80.1ZM1998.97,2705.22c0-21.6-15.9-37.8-37.5-37.8s-37.2,16.2-37.2,37.8,15.9,37.8,37.2,37.8,37.5-16.2,37.5-37.8Z"/>
    <path d="M2092.27,2731.92v-63.3h-22.8v-39.9h12.6c8.4,0,12.6-4.2,12.6-12.6v-27.6h41.4v40.2h33.3v39.9h-33.3v56.1c0,10.8,6.6,17.1,18,17.1h15.3v39.9h-21.9c-36.3,0-55.2-17.1-55.2-49.8Z"/>
    <path d="M2209.57,2663.82c-8.4-5.7-13.5-15.9-13.5-27,0-16.2,11.4-27.3,28.5-27.3,16.2,0,27.3,10.2,29.1,23.7l94.5,10.8v10.5c-16.5,22.8-25.2,42.6-25.2,59.4s8.1,25.5,23.4,25.5h6.6v42.3h-10.5c-42.6,0-64.5-23.4-64.5-62.4,0-13.2,2.7-26.4,9-39.9l-37.5-5.1-20.1,107.4h-43.2l23.4-117.9Z"/>
    <path d="M2364.66,2705.22c0-45.6,31.8-80.1,73.8-80.1,18.6,0,34.5,6.9,46.2,18.9v-15.3h43.8v98.4c0,7.8,4.5,12.3,12.3,12.3h3v42.3h-12.3c-21,0-34.8-6.9-41.7-20.7-12.3,15-30,24.3-51.3,24.3-42,0-73.8-34.5-73.8-80.1ZM2484.67,2705.22c0-21.6-15.9-37.8-37.5-37.8s-37.2,16.2-37.2,37.8,15.9,37.8,37.2,37.8,37.5-16.2,37.5-37.8Z"/>
  </g>
  <g>
    <path d="M1847.3,1332.17c112.07,0,203.25-91.18,203.25-203.25s-91.18-203.25-203.25-203.25-203.25,91.18-203.25,203.25,91.18,203.25,203.25,203.25ZM1847.3,1074.39c30.07,0,54.53,24.46,54.53,54.53s-24.46,54.53-54.53,54.53-54.53-24.46-54.53-54.53,24.46-54.53,54.53-54.53Z"/>
    <path d="M1958.15,1441.06l-32.51-52.37-168.22,42.3-253.77,672.48,157.91,59.59,209.44-554.99c93.35,117.7,300.8,334.82,611.8,416.79l43.02-163.21c-360.22-94.94-565.73-417.49-567.67-420.59Z"/>
    <path d="M2697.34,765.04c-27.28-98.13-87.62-183.04-174.48-245.55-75.51-54.34-168.8-90.56-269.81-104.76-157.35-22.11-331.37.39-517.22,66.88l56.86,158.93c159.87-57.19,306.86-76.93,436.88-58.66,121.57,17.08,265.58,86.05,305.16,228.38,30.47,109.55-12.04,243.75-108.29,341.88-100.52,102.49-242.7,147.23-368.51,177.48-50.07,12.04-103.23,22.34-154.65,32.3-257.65,49.93-549.69,106.52-674.6,429.02l157.39,60.96c91.21-235.51,303.5-276.65,549.31-324.28,53.23-10.31,108.27-20.98,161.99-33.9,140.39-33.76,318.37-89.65,449.55-223.4,139.81-142.54,197.43-336.15,150.4-505.28Z"/>
  </g>
</svg>