<?xml version="1.0" encoding="UTF-8"?>
<svg id="Capa_1" data-name="Capa 1" xmlns="http://www.w3.org/2000/svg" viewBox="0 0 2297.77 2569.57">
  <defs>
    <style>
      .cls-1 {
        fill: #fff;
      }
    </style>
  </defs>
  <path class="cls-1" d="M1025.12,1332.17c112.07,0,203.25-91.18,203.25-203.25s-91.18-203.25-203.25-203.25-203.25,91.18-203.25,203.25,91.18,203.25,203.25,203.25ZM1025.12,1074.39c30.07,0,54.53,24.46,54.53,54.53s-24.46,54.53-54.53,54.53-54.53-24.46-54.53-54.53,24.46-54.53,54.53-54.53Z"/>
  <path class="cls-1" d="M1135.97,1441.06l-32.51-52.37-168.22,42.3-253.77,672.48,157.91,59.59,209.44-554.99c93.35,117.7,300.8,334.82,611.8,416.79l43.02-163.21c-360.22-94.94-565.73-417.49-567.67-420.59Z"/>
  <path class="cls-1" d="M1875.16,765.04c-27.28-98.13-87.62-183.04-174.48-245.55-75.51-54.34-168.8-90.56-269.81-104.76-157.35-22.11-331.37.39-517.22,66.88l56.86,158.93c159.87-57.19,306.86-76.93,436.88-58.66,121.57,17.08,265.58,86.05,305.16,228.38,30.47,109.55-12.04,243.75-108.29,341.88-100.52,102.49-242.7,147.23-368.51,177.48-50.07,12.04-103.23,22.34-154.65,32.3-257.65,49.93-549.69,106.52-674.6,429.02l157.39,60.96c91.21-235.51,303.5-276.65,549.31-324.28,53.23-10.31,108.27-20.98,161.99-33.9,140.39-33.76,318.37-89.65,449.55-223.4,139.81-142.54,197.43-336.15,150.4-505.28Z"/>
</svg>